<?xml version="1.0" encoding="UTF-8" standalone="no"?>
<svg width="102px" height="41px" viewBox="0 0 102 41" version="1.1" xmlns="http://www.w3.org/2000/svg" xmlns:xlink="http://www.w3.org/1999/xlink" xmlns:sketch="http://www.bohemiancoding.com/sketch/ns">
    <title>bejoo</title>
    <description>Created with Sketch (http://www.bohemiancoding.com/sketch)</description>
    <defs></defs>
    <g id="Page-1" stroke="none" stroke-width="1" fill="none" fill-rule="evenodd" sketch:type="MSPage">
        <g id="Background-+-Bejoo" sketch:type="MSLayerGroup">
            <g id="Bejoo" transform="translate(-1.000000, 0.000000)" sketch:type="MSShapeGroup">
                <path d="M68.847,15.69 C65.825,15.69 64.142,18.762 64.142,22.872 C64.142,25.844 64.983,27.182 67.409,27.182 C70.134,27.182 72.214,24.557 72.214,20.049 C72.214,17.127 71.421,15.69 68.847,15.69 L68.847,15.69 L68.847,15.69 L68.847,15.69 Z M66.47,31.887 C60.823,31.887 57.108,29.41 57.108,23.12 C57.108,15.789 61.565,10.886 69.243,10.886 C76.425,10.886 78.95,14.452 78.95,19.752 C78.95,27.23 74.394,31.887 66.47,31.887 L66.47,31.887 Z M66.47,31.887" id="o" fill="#00A1BA"></path>
                <path d="M92.569,15.69 C89.548,15.69 87.864,18.762 87.864,22.872 C87.864,25.844 88.706,27.182 91.134,27.182 C93.858,27.182 95.938,24.557 95.938,20.049 C95.938,17.127 95.146,15.69 92.569,15.69 L92.569,15.69 L92.569,15.69 L92.569,15.69 Z M90.192,31.887 C84.546,31.887 80.831,29.41 80.831,23.12 C80.831,15.789 85.288,10.886 92.966,10.886 C100.147,10.886 102.675,14.452 102.675,19.752 C102.675,27.23 98.118,31.887 90.192,31.887 L90.192,31.887 Z M90.192,31.887" id="o" fill="#00A1BA"></path>
                <path d="M53.888,8.162 C52.055,8.162 50.421,7.518 50.421,5.091 C50.421,2.961 52.006,1.327 54.632,1.327 C56.96,1.327 57.999,2.664 57.999,4.497 C57.999,6.676 56.464,8.162 53.888,8.162 L53.888,8.162 L53.888,8.162 L53.888,8.162 Z M52.798,28.965 C51.758,37.483 48.836,41 42.843,41 C40.317,41 39.079,39.91 39.079,38.028 C39.079,37.533 39.178,36.938 39.475,36.443 C44.477,36.393 44.675,36.295 45.518,29.707 L47.35,15.839 L45.072,15.889 C44.675,15.394 44.577,14.7 44.577,14.056 C44.577,11.877 46.508,11.084 50.917,11.084 C54.185,11.084 54.829,11.975 54.581,14.056 L52.798,28.965 L52.798,28.965 Z M52.798,28.965" id="j" fill="#00A1BA"></path>
                <path d="M34.969,15.592 C33.235,15.592 31.799,17.424 31.452,20.445 C35.663,19.9 36.703,18.612 36.703,17.077 C36.703,16.185 36.207,15.592 34.969,15.592 L34.969,15.592 L34.969,15.592 L34.969,15.592 Z M31.254,23.615 C31.205,25.992 32.096,27.132 34.275,27.132 C36.603,27.132 38.188,26.637 40.863,25.052 C41.754,25.398 42.546,26.24 42.546,27.38 C42.546,29.905 39.773,32.283 32.591,32.283 C26.648,32.283 24.023,29.905 24.023,23.417 C24.023,15.74 29.323,10.935 35.761,10.935 C40.566,10.935 42.745,12.769 42.745,16.087 C42.745,20.544 38.931,23.021 31.254,23.615 L31.254,23.615 Z M31.254,23.615" id="e" fill="#9EC83C"></path>
                <path d="M12.235,15.74 C11.096,15.74 9.858,16.334 9.165,17.127 L8.124,25.844 C8.025,26.785 8.322,27.182 10.205,27.182 C12.879,27.182 15.256,24.854 15.256,20.247 C15.256,16.681 14.315,15.74 12.235,15.74 L12.235,15.74 L12.235,15.74 L12.235,15.74 Z M9.362,31.887 C2.775,31.887 0.497,29.757 1.09,25.2 L2.923,10.787 C3.765,4.199 6.44,0.336 11.838,0.336 C14.91,0.336 15.851,1.476 15.851,3.011 C15.851,3.605 15.702,4.348 15.455,4.794 C12.185,5.141 11.542,5.586 11.096,6.527 C10.65,7.469 10.006,10.935 9.61,13.857 C10.65,12.075 12.235,11.034 15.008,11.034 C19.913,11.034 22.141,14.056 22.141,19.257 C22.141,27.033 16.94,31.887 9.362,31.887 L9.362,31.887 Z M9.362,31.887" id="b" fill="#9EC83C"></path>
            </g>
        </g>
    </g>
</svg>